0
SECTION
2
HEADER
9
$INSUNITS
70
4
9
$ACADVER
1
AC1014
9
$HANDSEED
5
FFFF
0
ENDSEC
0
SECTION
2
TABLES
0
TABLE
2
VPORT
5
8
100
AcDbSymbolTable
0
ENDTAB
0
TABLE
2
LTYPE
5
5
100
AcDbSymbolTable
0
LTYPE
5
14
100
AcDbSymbolTableRecord
100
AcDbLinetypeTableRecord
2
BYBLOCK
70
0
0
LTYPE
5
15
100
AcDbSymbolTableRecord
100
AcDbLinetypeTableRecord
2
BYLAYER
70
0
0
ENDTAB
0
TABLE
2
LAYER
5
2
100
AcDbSymbolTable
70
2
0
LAYER
5
50
100
AcDbSymbolTableRecord
100
AcDbLayerTableRecord
2
0
70
0
6
CONTINUOUS
0
ENDTAB
0
TABLE
2
STYLE
5
3
100
AcDbSymbolTable
70
1
0
STYLE
5
11
100
AcDbSymbolTableRecord
100
AcDbTextStyleTableRecord
2
STANDARD
70
0
0
ENDTAB
0
TABLE
2
VIEW
5
6
100
AcDbSymbolTable
70
0
0
ENDTAB
0
TABLE
2
UCS
5
7
100
AcDbSymbolTable
70
0
0
ENDTAB
0
TABLE
2
APPID
5
9
100
AcDbSymbolTable
70
2
0
APPID
5
12
100
AcDbSymbolTableRecord
100
AcDbRegAppTableRecord
2
ACAD
70
0
0
ENDTAB
0
TABLE
2
DIMSTYLE
5
A
100
AcDbSymbolTable
70
1
0
ENDTAB
0
TABLE
2
BLOCK_RECORD
5
1
100
AcDbSymbolTable
70
1
0
BLOCK_RECORD
5
1F
100
AcDbSymbolTableRecord
100
AcDbBlockTableRecord
2
*MODEL_SPACE
0
BLOCK_RECORD
5
1B
100
AcDbSymbolTableRecord
100
AcDbBlockTableRecord
2
*PAPER_SPACE
0
ENDTAB
0
ENDSEC
0
SECTION
2
BLOCKS
0
BLOCK
5
20
100
AcDbEntity
100
AcDbBlockBegin
2
*MODEL_SPACE
0
ENDBLK
5
21
100
AcDbEntity
100
AcDbBlockEnd
0
BLOCK
5
1C
100
AcDbEntity
100
AcDbBlockBegin
2
*PAPER_SPACE
0
ENDBLK
5
1D
100
AcDbEntity
100
AcDbBlockEnd
0
ENDSEC
0
SECTION
2
ENTITIES
0
LWPOLYLINE
5
100
100
AcDbEntity
8
0
100
AcDbPolyline
90
39
70
1
43
0.0
10
-10.230679790858515
20
-16.262302694437349
10
-2.6222276604972885
20
-13.790166739437772
42
0.41421356237309587
10
-1.3381486166568775
20
-11.27001971809757
10
-2.7548601171020759
20
-6.9098300562505273
42
0.32491969623290629
10
-12.265425280053609
20
1.3877787807814457e-16
10
-16.849999999999998
20
0
42
0.41421356237309509
10
-18.849999999999998
20
-2
10
-18.849999999999998
20
-9.9999999999999982
10
-21.150000000000002
20
-9.9999999999999982
10
-21.150000000000002
20
-1.9999999999999973
42
0.41421356237309476
10
-23.150000000000006
20
2.7755575615628914e-15
10
-27.734574719946394
20
0
42
0.32491969623290617
10
-37.245139882897924
20
-6.9098300562505264
10
-38.661851383343134
20
-11.27001971809756
42
0.41421356237309448
10
-37.377772339502719
20
-13.790166739437764
10
-29.769320209141483
20
-16.262302694437345
10
-30.480059296203869
20
-18.449732681916203
10
-38.088511426565084
20
-15.977596726916621
42
0.41421356237309553
10
-40.608658447905285
20
-17.261675770757034
10
-42.025369948350509
20
-21.621865432604089
42
0.32491969623290606
10
-38.392657308323692
20
-32.802205320103042
10
-34.683658447905302
20
-35.496950728520403
42
0.41421356237309448
10
-31.890053954570465
20
-35.054487244355464
10
-27.187771936230671
20
-28.582351289355881
10
-25.32703284916829
20
-29.934257369628572
10
-31.204885372093017
20
-38.024427313378041
10
-25.877852522924726
20
-41.894743226380371
42
0.32491969623290573
10
-14.122147477075275
20
-41.894743226380385
10
-10.413148616656883
20
-39.199997817963002
42
0.41421356237309598
10
-9.9706851324919299
20
-36.406393324628155
10
-14.672967150831713
20
-29.934257369628583
10
-12.81222806376933
20
-28.582351289355891
10
-8.1099460454295489
20
-35.054487244355471
42
0.41421356237309531
10
-5.3163415520947073
20
-35.496950728520417
10
-1.6073426916763123
20
-32.802205320103035
42
0.32491969623290601
10
2.0253699483504999
20
-21.621865432604096
10
0.60865844790529278
20
-17.261675770757044
42
0.41421356237309509
10
-1.9114885734349101
20
-15.977596726916634
10
-9.5199407037961343
20
-18.44973268191621
0
CIRCLE
5
101
100
AcDbEntity
8
0
100
AcDbCircle
10
-23.24634418111841
20
-17.213664704416423
30
0
40
4.7119070598993549
210
0
220
0
230
1
0
ENDSEC
0
SECTION
2
OBJECTS
0
DICTIONARY
5
C
100
AcDbDictionary
3
ACAD_GROUP
350
D
3
ACAD_MLINESTYLE
350
17
0
DICTIONARY
5
D
100
AcDbDictionary
0
DICTIONARY
5
1A
330
C
100
AcDbDictionary
0
DICTIONARY
5
17
100
AcDbDictionary
0
ENDSEC
0
EOF
