0
SECTION
2
HEADER
9
$INSUNITS
70
4
9
$ACADVER
1
AC1014
9
$HANDSEED
5
FFFF
0
ENDSEC
0
SECTION
2
TABLES
0
TABLE
2
VPORT
5
8
100
AcDbSymbolTable
0
ENDTAB
0
TABLE
2
LTYPE
5
5
100
AcDbSymbolTable
0
LTYPE
5
14
100
AcDbSymbolTableRecord
100
AcDbLinetypeTableRecord
2
BYBLOCK
70
0
0
LTYPE
5
15
100
AcDbSymbolTableRecord
100
AcDbLinetypeTableRecord
2
BYLAYER
70
0
0
ENDTAB
0
TABLE
2
LAYER
5
2
100
AcDbSymbolTable
70
2
0
LAYER
5
50
100
AcDbSymbolTableRecord
100
AcDbLayerTableRecord
2
0
70
0
6
CONTINUOUS
0
ENDTAB
0
TABLE
2
STYLE
5
3
100
AcDbSymbolTable
70
1
0
STYLE
5
11
100
AcDbSymbolTableRecord
100
AcDbTextStyleTableRecord
2
STANDARD
70
0
0
ENDTAB
0
TABLE
2
VIEW
5
6
100
AcDbSymbolTable
70
0
0
ENDTAB
0
TABLE
2
UCS
5
7
100
AcDbSymbolTable
70
0
0
ENDTAB
0
TABLE
2
APPID
5
9
100
AcDbSymbolTable
70
2
0
APPID
5
12
100
AcDbSymbolTableRecord
100
AcDbRegAppTableRecord
2
ACAD
70
0
0
ENDTAB
0
TABLE
2
DIMSTYLE
5
A
100
AcDbSymbolTable
70
1
0
ENDTAB
0
TABLE
2
BLOCK_RECORD
5
1
100
AcDbSymbolTable
70
1
0
BLOCK_RECORD
5
1F
100
AcDbSymbolTableRecord
100
AcDbBlockTableRecord
2
*MODEL_SPACE
0
BLOCK_RECORD
5
1B
100
AcDbSymbolTableRecord
100
AcDbBlockTableRecord
2
*PAPER_SPACE
0
ENDTAB
0
ENDSEC
0
SECTION
2
BLOCKS
0
BLOCK
5
20
100
AcDbEntity
100
AcDbBlockBegin
2
*MODEL_SPACE
0
ENDBLK
5
21
100
AcDbEntity
100
AcDbBlockEnd
0
BLOCK
5
1C
100
AcDbEntity
100
AcDbBlockBegin
2
*PAPER_SPACE
0
ENDBLK
5
1D
100
AcDbEntity
100
AcDbBlockEnd
0
ENDSEC
0
SECTION
2
ENTITIES
0
LWPOLYLINE
5
100
100
AcDbEntity
8
0
100
AcDbPolyline
90
40
70
1
43
0.0
10
-24.273530896290623
20
-15.453904655586472
10
-25.509598873790416
20
-19.258130720767085
10
-33.118051004151624
20
-16.785994765767509
42
0.41421356237309659
10
-35.638198025491839
20
-18.070073809607926
10
-36.792245080718338
20
-21.621865432604082
42
0.32491969623290617
10
-33.159532440691535
20
-32.802205320103027
10
-30.138198025491846
20
-34.99733326407182
42
0.41421356237309509
10
-27.34459353215701
20
-34.554869779906873
10
-22.642311513817219
20
-28.08273382490729
10
-19.406243536317429
20
-30.433874834077184
10
-24.108525554657213
20
-36.906010789076753
42
0.41421356237309603
10
-23.666062070492259
20
-39.6996152824116
10
-20.64472765529257
20
-41.894743226380399
42
0.32491969623290606
10
-8.8890226094431206
20
-41.894743226380399
10
-5.8676881942434207
20
-39.699615282411614
42
0.41421356237309465
10
-5.4252247100784707
20
-36.906010789076781
10
-10.127506728418254
20
-30.433874834077194
10
-6.8914387509184616
20
-28.082733824907301
10
-2.1891567325786809
20
-34.554869779906873
42
0.41421356237309531
10
0.60444776075616014
20
-34.997333264071827
10
3.6257821759558517
20
-32.802205320103049
42
0.32491969623290617
10
7.2584948159826634
20
-21.621865432604103
10
6.1044477607561642
20
-18.070073809607933
42
0.41421356237309509
10
3.5843007394159629
20
-16.785994765767519
10
-4.0241513909452653
20
-19.258130720767099
10
-5.2602193684450516
20
-15.453904655586484
10
2.3482327619161802
20
-12.981768700586905
42
0.41421356237309476
10
3.6323118057565935
20
-10.461621679246704
10
2.4782647505300925
20
-6.9098300562505273
42
0.32491969623290645
10
-7.0323004124214386
20
-4.163336342344337e-16
10
-10.766875132367833
20
0
42
0.41421356237309503
10
-12.766875132367833
20
-1.9999999999999996
10
-12.766875132367836
20
-10
10
-16.241875132367834
20
-10
10
-16.241875132367841
20
-2.1444385995059889
42
0.4142135623730947
10
-18.386313731873877
20
4.6629367034256575e-14
10
-22.501449852314245
20
-2.2204460492503131e-15
42
0.32491969623290623
10
-32.012015015265774
20
-6.9098300562505246
10
-33.166062070492274
20
-10.461621679246683
42
0.41421356237309337
10
-31.881983026651874
20
-12.981768700586883
0
ENDSEC
0
SECTION
2
OBJECTS
0
DICTIONARY
5
C
100
AcDbDictionary
3
ACAD_GROUP
350
D
3
ACAD_MLINESTYLE
350
17
0
DICTIONARY
5
D
100
AcDbDictionary
0
DICTIONARY
5
1A
330
C
100
AcDbDictionary
0
DICTIONARY
5
17
100
AcDbDictionary
0
ENDSEC
0
EOF
