0
SECTION
2
HEADER
9
$INSUNITS
70
4
9
$ACADVER
1
AC1014
9
$HANDSEED
5
FFFF
0
ENDSEC
0
SECTION
2
TABLES
0
TABLE
2
VPORT
5
8
100
AcDbSymbolTable
0
ENDTAB
0
TABLE
2
LTYPE
5
5
100
AcDbSymbolTable
0
LTYPE
5
14
100
AcDbSymbolTableRecord
100
AcDbLinetypeTableRecord
2
BYBLOCK
70
0
0
LTYPE
5
15
100
AcDbSymbolTableRecord
100
AcDbLinetypeTableRecord
2
BYLAYER
70
0
0
ENDTAB
0
TABLE
2
LAYER
5
2
100
AcDbSymbolTable
70
2
0
LAYER
5
50
100
AcDbSymbolTableRecord
100
AcDbLayerTableRecord
2
0
70
0
6
CONTINUOUS
0
ENDTAB
0
TABLE
2
STYLE
5
3
100
AcDbSymbolTable
70
1
0
STYLE
5
11
100
AcDbSymbolTableRecord
100
AcDbTextStyleTableRecord
2
STANDARD
70
0
0
ENDTAB
0
TABLE
2
VIEW
5
6
100
AcDbSymbolTable
70
0
0
ENDTAB
0
TABLE
2
UCS
5
7
100
AcDbSymbolTable
70
0
0
ENDTAB
0
TABLE
2
APPID
5
9
100
AcDbSymbolTable
70
2
0
APPID
5
12
100
AcDbSymbolTableRecord
100
AcDbRegAppTableRecord
2
ACAD
70
0
0
ENDTAB
0
TABLE
2
DIMSTYLE
5
A
100
AcDbSymbolTable
70
1
0
ENDTAB
0
TABLE
2
BLOCK_RECORD
5
1
100
AcDbSymbolTable
70
1
0
BLOCK_RECORD
5
1F
100
AcDbSymbolTableRecord
100
AcDbBlockTableRecord
2
*MODEL_SPACE
0
BLOCK_RECORD
5
1B
100
AcDbSymbolTableRecord
100
AcDbBlockTableRecord
2
*PAPER_SPACE
0
ENDTAB
0
ENDSEC
0
SECTION
2
BLOCKS
0
BLOCK
5
20
100
AcDbEntity
100
AcDbBlockBegin
2
*MODEL_SPACE
0
ENDBLK
5
21
100
AcDbEntity
100
AcDbBlockEnd
0
BLOCK
5
1C
100
AcDbEntity
100
AcDbBlockBegin
2
*PAPER_SPACE
0
ENDBLK
5
1D
100
AcDbEntity
100
AcDbBlockEnd
0
ENDSEC
0
SECTION
2
ENTITIES
0
LINE
5
100
100
AcDbEntity
8
0
100
AcDbLine
10
18.170451812821533
20
-10.34217320164066
30
0
11
18.170451812821533
21
-20.341911470010167
31
0
0
LWPOLYLINE
5
101
100
AcDbEntity
8
0
100
AcDbPolyline
90
40
70
1
43
0.0
10
15.036204840982064
20
-10.34217320164066
10
11.636204840982064
20
-10.342173201640662
10
11.636204840982064
20
-2.3419114700101651
42
0.41421356237309515
10
9.6362048409820602
20
-0.34191147001016325
10
5.3500793968376135
20
-0.34191147001016553
42
0.32491969623290634
10
-4.160485766113923
20
-7.2517415262606928
10
-5.3295044709283736
20
-10.849611148718063
42
0.41421356237309559
10
-4.0454254270879577
20
-13.369758170058274
10
3.5632756248459776
20
-15.841975004579647
10
2.5126178439711566
20
-19.075567159983166
10
-5.096083207962776
20
-16.603350325461793
42
0.41421356237309587
10
-7.6162302293029853
20
-17.887429369302211
10
-8.9407158315664788
20
-21.963776902614249
42
0.32491969623290634
10
-5.3080031915396724
20
-33.144116790113202
10
-2.2474724888510722
20
-35.367722503882597
42
0.41421356237309626
10
0.54613200448378585
20
-34.92525901971765
10
5.2485678648160388
20
-28.452911319381037
10
7.9992256456908564
20
-30.451381177175442
10
3.2967897853586048
20
-36.923728877512055
42
0.41421356237309992
10
3.7392532695235592
20
-39.717333370846916
10
7.2068015938592866
20
-42.236654696390531
42
0.32491969623290645
10
18.962506639708749
20
-42.236654696390531
10
22.023037342397352
20
-40.013048982621122
42
0.41421356237309603
10
22.465500826562309
20
-37.219444489286275
10
17.763064966230061
20
-30.747096788949655
10
20.513722747104879
20
-28.74862693115525
10
25.216158607437119
20
-35.22097463149187
42
0.41421356237310153
10
28.009763100771991
20
-35.663438115656824
10
31.477311425107708
20
-33.144116790113188
42
0.32491969623290645
10
35.11002406513451
20
-21.963776902614232
10
33.941005360320048
20
-18.365907280156868
42
0.41421356237309748
10
31.420858338979841
20
-17.081828236316447
10
23.81215728704591
20
-19.554045070837812
10
22.761499506171091
20
-16.320452915434295
10
30.370200558105029
20
-13.848236080912933
42
0.41421356237310047
10
31.654279601945451
20
-11.328089059572715
10
30.329793999681939
20
-7.2517415262606866
42
0.32491969623290634
10
20.819228836730403
20
-0.34191147001015665
10
17.036204840982066
20
-0.34191147001015831
42
0.41421356237309592
10
15.036204840982062
20
-2.3419114700101638
0
ENDSEC
0
SECTION
2
OBJECTS
0
DICTIONARY
5
C
100
AcDbDictionary
3
ACAD_GROUP
350
D
3
ACAD_MLINESTYLE
350
17
0
DICTIONARY
5
D
100
AcDbDictionary
0
DICTIONARY
5
1A
330
C
100
AcDbDictionary
0
DICTIONARY
5
17
100
AcDbDictionary
0
ENDSEC
0
EOF
