0
SECTION
2
HEADER
9
$INSUNITS
70
4
9
$ACADVER
1
AC1014
9
$HANDSEED
5
FFFF
0
ENDSEC
0
SECTION
2
TABLES
0
TABLE
2
VPORT
5
8
100
AcDbSymbolTable
0
ENDTAB
0
TABLE
2
LTYPE
5
5
100
AcDbSymbolTable
0
LTYPE
5
14
100
AcDbSymbolTableRecord
100
AcDbLinetypeTableRecord
2
BYBLOCK
70
0
0
LTYPE
5
15
100
AcDbSymbolTableRecord
100
AcDbLinetypeTableRecord
2
BYLAYER
70
0
0
ENDTAB
0
TABLE
2
LAYER
5
2
100
AcDbSymbolTable
70
2
0
LAYER
5
50
100
AcDbSymbolTableRecord
100
AcDbLayerTableRecord
2
0
70
0
6
CONTINUOUS
0
ENDTAB
0
TABLE
2
STYLE
5
3
100
AcDbSymbolTable
70
1
0
STYLE
5
11
100
AcDbSymbolTableRecord
100
AcDbTextStyleTableRecord
2
STANDARD
70
0
0
ENDTAB
0
TABLE
2
VIEW
5
6
100
AcDbSymbolTable
70
0
0
ENDTAB
0
TABLE
2
UCS
5
7
100
AcDbSymbolTable
70
0
0
ENDTAB
0
TABLE
2
APPID
5
9
100
AcDbSymbolTable
70
2
0
APPID
5
12
100
AcDbSymbolTableRecord
100
AcDbRegAppTableRecord
2
ACAD
70
0
0
ENDTAB
0
TABLE
2
DIMSTYLE
5
A
100
AcDbSymbolTable
70
1
0
ENDTAB
0
TABLE
2
BLOCK_RECORD
5
1
100
AcDbSymbolTable
70
1
0
BLOCK_RECORD
5
1F
100
AcDbSymbolTableRecord
100
AcDbBlockTableRecord
2
*MODEL_SPACE
0
BLOCK_RECORD
5
1B
100
AcDbSymbolTableRecord
100
AcDbBlockTableRecord
2
*PAPER_SPACE
0
ENDTAB
0
ENDSEC
0
SECTION
2
BLOCKS
0
BLOCK
5
20
100
AcDbEntity
100
AcDbBlockBegin
2
*MODEL_SPACE
0
ENDBLK
5
21
100
AcDbEntity
100
AcDbBlockEnd
0
BLOCK
5
1C
100
AcDbEntity
100
AcDbBlockBegin
2
*PAPER_SPACE
0
ENDBLK
5
1D
100
AcDbEntity
100
AcDbBlockEnd
0
ENDSEC
0
SECTION
2
ENTITIES
0
LINE
5
100
100
AcDbEntity
8
0
100
AcDbLine
10
14.766875132367838
20
20.645728807067609
30
0
11
14.766875132367836
21
10
31
0
0
LINE
5
101
100
AcDbEntity
8
0
100
AcDbLine
10
14.766875132367836
20
10
30
0
11
14.766875132367836
21
10.322864403533805
31
0
0
LINE
5
102
100
AcDbEntity
8
0
100
AcDbLine
10
14.766875132367836
20
10
30
0
11
16.566875132367834
21
10
31
0
0
LINE
5
103
100
AcDbEntity
8
0
100
AcDbLine
10
16.566875132367834
20
10
30
0
11
16.566875132367841
21
1.9999999999999964
31
0
0
LINE
5
104
100
AcDbEntity
8
0
100
AcDbLine
10
14.766875132367836
20
10
30
0
11
12.766875132367836
21
10
31
0
0
LINE
5
105
100
AcDbEntity
8
0
100
AcDbLine
10
12.766875132367836
20
10
30
0
11
12.766875132367833
21
1.9999999999999996
31
0
0
LINE
5
106
100
AcDbEntity
8
0
100
AcDbLine
10
7.032300412421443
20
0
30
0
11
10.766875132367833
21
8.3266726846886741e-16
31
0
0
LINE
5
107
100
AcDbEntity
8
0
100
AcDbLine
10
18.566875132367837
20
0
30
0
11
22.501449852314245
21
1.3877787807814457e-15
31
0
0
LINE
5
108
100
AcDbEntity
8
0
100
AcDbLine
10
25.509598873790416
20
19.258130720767085
30
0
11
33.118051004151624
21
16.785994765767509
31
0
0
LINE
5
109
100
AcDbEntity
8
0
100
AcDbLine
10
24.891564885040523
20
17.356017688176777
30
0
11
25.509598873790416
21
19.258130720767085
31
0
0
LINE
5
110
100
AcDbEntity
8
0
100
AcDbLine
10
24.891564885040523
20
17.356017688176777
30
0
11
24.273530896290623
21
15.453904655586472
31
0
0
LINE
5
111
100
AcDbEntity
8
0
100
AcDbLine
10
24.273530896290623
20
15.453904655586472
30
0
11
31.881983026651866
21
12.981768700586883
31
0
0
LINE
5
112
100
AcDbEntity
8
0
100
AcDbLine
10
19.406243536317429
20
30.433874834077184
30
0
11
24.108525554657213
21
36.906010789076753
31
0
0
LINE
5
113
100
AcDbEntity
8
0
100
AcDbLine
10
21.024277525067319
20
29.258304329492233
30
0
11
19.406243536317429
21
30.433874834077184
31
0
0
LINE
5
114
100
AcDbEntity
8
0
100
AcDbLine
10
21.024277525067319
20
29.258304329492233
30
0
11
22.642311513817219
21
28.08273382490729
31
0
0
LINE
5
115
100
AcDbEntity
8
0
100
AcDbLine
10
22.642311513817219
20
28.08273382490729
30
0
11
27.34459353215701
21
34.554869779906873
31
0
0
LINE
5
116
100
AcDbEntity
8
0
100
AcDbLine
10
6.8914387509184625
20
28.082733824907301
30
0
11
2.18915673257868
21
34.554869779906873
31
0
0
LINE
5
117
100
AcDbEntity
8
0
100
AcDbLine
10
8.5094727396683574
20
29.258304329492244
30
0
11
6.8914387509184625
21
28.082733824907301
31
0
0
LINE
5
118
100
AcDbEntity
8
0
100
AcDbLine
10
8.5094727396683574
20
29.258304329492244
30
0
11
10.127506728418254
21
30.433874834077194
31
0
0
LINE
5
119
100
AcDbEntity
8
0
100
AcDbLine
10
10.127506728418254
20
30.433874834077194
30
0
11
5.4252247100784707
21
36.906010789076781
31
0
0
LINE
5
120
100
AcDbEntity
8
0
100
AcDbLine
10
5.2602193684450516
20
15.453904655586484
30
0
11
-2.3482327619161802
21
12.981768700586905
31
0
0
LINE
5
121
100
AcDbEntity
8
0
100
AcDbLine
10
4.6421853796951567
20
17.356017688176788
30
0
11
5.2602193684450516
21
15.453904655586484
31
0
0
LINE
5
122
100
AcDbEntity
8
0
100
AcDbLine
10
4.6421853796951567
20
17.356017688176788
30
0
11
4.0241513909452635
21
19.258130720767099
31
0
0
LINE
5
123
100
AcDbEntity
8
0
100
AcDbLine
10
4.0241513909452635
20
19.258130720767099
30
0
11
-3.5843007394159629
21
16.785994765767519
31
0
0
LINE
5
124
100
AcDbEntity
8
0
100
AcDbLine
10
-7.2584948159826617
20
21.621865432604103
30
0
11
-6.1044477607561651
21
18.070073809607933
31
0
0
LINE
5
125
100
AcDbEntity
8
0
100
AcDbLine
10
-3.6323118057565926
20
10.461621679246704
30
0
11
-2.4782647505300948
21
6.9098300562505273
31
0
0
LINE
5
126
100
AcDbEntity
8
0
100
AcDbLine
10
32.012015015265774
20
6.9098300562505246
30
0
11
33.166062070492274
21
10.461621679246683
31
0
0
LINE
5
127
100
AcDbEntity
8
0
100
AcDbLine
10
35.638198025491839
20
18.070073809607923
30
0
11
36.792245080718338
21
21.621865432604082
31
0
0
LINE
5
128
100
AcDbEntity
8
0
100
AcDbLine
10
33.159532440691542
20
32.802205320103042
30
0
11
30.138198025491846
21
34.99733326407182
31
0
0
LINE
5
129
100
AcDbEntity
8
0
100
AcDbLine
10
23.666062070492259
20
39.6996152824116
30
0
11
20.64472765529257
21
41.894743226380399
31
0
0
LINE
5
130
100
AcDbEntity
8
0
100
AcDbLine
10
8.8890226094431117
20
41.894743226380406
30
0
11
5.8676881942434207
21
39.699615282411621
31
0
0
LINE
5
131
100
AcDbEntity
8
0
100
AcDbLine
10
-0.60444776075616136
20
34.997333264071827
30
0
11
-3.62578217595585
21
32.802205320103049
31
0
0
ARC
5
132
100
AcDbEntity
8
0
100
AcDbCircle
10
10.766875132367833
20
2
30
0
40
1.9999999999999993
210
-0
220
0
230
1
100
AcDbArc
50
270
51
360
0
ARC
5
133
100
AcDbEntity
8
0
100
AcDbCircle
10
18.566875132367837
20
1.9999999999999973
30
0
40
1.9999999999999973
210
0
220
0
230
1
100
AcDbArc
50
180
51
270
0
ARC
5
134
100
AcDbEntity
8
0
100
AcDbCircle
10
2.2520703469688765
20
24.712035376353569
30
0
40
10
210
0
220
0
230
1
100
AcDbArc
50
125.99999999999997
51
197.99999999999994
0
ARC
5
135
100
AcDbEntity
8
0
100
AcDbCircle
10
14.766875132367844
20
33.804573282630919
30
0
40
9.9999999999999982
210
0
220
-0
230
1
100
AcDbArc
50
54.000000000000036
51
125.99999999999997
0
ARC
5
136
100
AcDbEntity
8
0
100
AcDbCircle
10
27.281679917766802
20
24.712035376353555
30
0
40
9.9999999999999947
210
0
220
0
230
1
100
AcDbArc
50
-18
51
54
0
ARC
5
137
100
AcDbEntity
8
0
100
AcDbCircle
10
22.501449852314245
20
10
30
0
40
9.9999999999999982
210
0
220
0
230
1
100
AcDbArc
50
270
51
342
0
ARC
5
138
100
AcDbEntity
8
0
100
AcDbCircle
10
7.0323004124214386
20
9.9999999999999964
30
0
40
9.9999999999999964
210
0
220
0
230
1
100
AcDbArc
50
197.99999999999994
51
270
0
ARC
5
139
100
AcDbEntity
8
0
100
AcDbCircle
10
31.263949037901966
20
11.079655667996578
30
0
40
2.0000000000000022
210
-0
220
0
230
1
100
AcDbArc
50
-18
51
71.999999999999844
0
ARC
5
140
100
AcDbEntity
8
0
100
AcDbCircle
10
33.736084992901525
20
18.688107798357816
30
0
40
2.0000000000000009
210
0
220
0
230
1
100
AcDbArc
50
251.99999999999983
51
342.00000000000006
0
ARC
5
141
100
AcDbEntity
8
0
100
AcDbCircle
10
-1.7301987731662858
20
11.079655667996597
30
0
40
1.9999999999999996
210
0
220
0
230
1
100
AcDbArc
50
108
51
197.99999999999994
0
ARC
5
142
100
AcDbEntity
8
0
100
AcDbCircle
10
-4.202334728165857
20
18.688107798357827
30
0
40
2.0000000000000009
210
0
220
0
230
1
100
AcDbArc
50
197.99999999999994
51
288
0
ARC
5
143
100
AcDbEntity
8
0
100
AcDbCircle
10
0.57112274382878447
20
33.379299275321934
30
0
40
1.9999999999999993
210
0
220
-0
230
1
100
AcDbArc
50
35.999999999999829
51
126.00000000000003
0
ARC
5
144
100
AcDbEntity
8
0
100
AcDbCircle
10
7.0432586988283656
20
38.081581293661728
30
0
40
1.9999999999999982
210
0
220
0
230
1
100
AcDbArc
50
126
51
216
0
ARC
5
145
100
AcDbEntity
8
0
100
AcDbCircle
10
22.490491565907313
20
38.081581293661706
30
0
40
2.0000000000000044
210
-0
220
0
230
1
100
AcDbArc
50
-36.000000000000107
51
53.99999999999995
0
ARC
5
146
100
AcDbEntity
8
0
100
AcDbCircle
10
28.962627520906903
20
33.379299275321927
30
0
40
1.9999999999999982
210
0
220
-0
230
1
100
AcDbArc
50
54.000000000000036
51
143.99999999999997
0
ENDSEC
0
SECTION
2
OBJECTS
0
DICTIONARY
5
C
100
AcDbDictionary
3
ACAD_GROUP
350
D
3
ACAD_MLINESTYLE
350
17
0
DICTIONARY
5
D
100
AcDbDictionary
0
DICTIONARY
5
1A
330
C
100
AcDbDictionary
0
DICTIONARY
5
17
100
AcDbDictionary
0
ENDSEC
0
EOF
